<svg width="18" height="18" viewBox="0 0 18 18" fill="none" xmlns="http://www.w3.org/2000/svg">
<g clip-path="url(#clip0)">
<path d="M17.8959 3.76074C17.7928 3.61306 17.627 3.52178 17.4469 3.51409L6.28137 3.0328C5.96101 3.01879 5.6933 3.26612 5.6796 3.58499C5.66599 3.90374 5.91292 4.17306 6.23175 4.18675L16.6414 4.63549L14.5946 11.0215H5.48633L3.84078 2.06161C3.80461 1.86524 3.66979 1.70141 3.48385 1.62846L0.78872 0.569659C0.491683 0.453366 0.156499 0.599266 0.0398432 0.895941C-0.0766112 1.19278 0.0692488 1.52816 0.366125 1.64482L2.76252 2.58624L4.43711 11.7034C4.48759 11.9775 4.72646 12.1766 5.00525 12.1766H5.28303L4.64871 13.9385C4.59562 14.0861 4.6175 14.25 4.70785 14.3782C4.79808 14.5064 4.94483 14.5827 5.10148 14.5827H5.54639C5.2707 14.8896 5.10148 15.2935 5.10148 15.7378C5.10148 16.6932 5.87888 17.4704 6.83408 17.4704C7.78928 17.4704 8.56667 16.6932 8.56667 15.7378C8.56667 15.2936 8.39745 14.8896 8.1218 14.5827H11.8993C11.6235 14.8896 11.4543 15.2935 11.4543 15.7378C11.4543 16.6932 12.2315 17.4704 13.1869 17.4704C14.1423 17.4704 14.9195 16.6932 14.9195 15.7378C14.9195 15.2936 14.7503 14.8896 14.4747 14.5827H15.0158C15.2816 14.5827 15.4971 14.3673 15.4971 14.1015C15.4971 13.8356 15.2816 13.6202 15.0158 13.6202H5.78627L6.30598 12.1764H15.0157C15.2669 12.1764 15.4891 12.0141 15.5656 11.7752L17.972 4.2672C18.0273 4.09584 17.9989 3.90849 17.8959 3.76074ZM6.83412 16.508C6.40943 16.508 6.06405 16.1627 6.06405 15.738C6.06405 15.3133 6.40943 14.968 6.83412 14.968C7.25881 14.968 7.60414 15.3133 7.60414 15.738C7.60414 16.1627 7.25881 16.508 6.83412 16.508ZM13.1869 16.508C12.7622 16.508 12.4169 16.1627 12.4169 15.738C12.4169 15.3133 12.7622 14.968 13.1869 14.968C13.6116 14.968 13.9569 15.3133 13.9569 15.738C13.9569 16.1627 13.6116 16.508 13.1869 16.508Z" fill="#436372"/>
</g>
<defs>
<clipPath id="clip0">
<rect width="18" height="18" fill="white"/>
</clipPath>
</defs>
</svg>
