<svg width="60" height="60" viewBox="0 0 60 60" fill="none" xmlns="http://www.w3.org/2000/svg">
<path d="M49.2661 0H10.7339C4.81523 0 0 4.81523 0 10.7339V49.2662C0 55.1848 4.81523 60 10.7339 60H49.2662C55.1848 60 60 55.1848 60 49.2661V10.7339C60 4.81523 55.1848 0 49.2661 0ZM56.4844 49.2661C56.4844 53.2462 53.2462 56.4844 49.2661 56.4844H10.7339C6.75375 56.4844 3.51562 53.2462 3.51562 49.2661V10.7339C3.51562 6.75375 6.75375 3.51562 10.7339 3.51562H49.2662C53.2463 3.51562 56.4844 6.75375 56.4844 10.7339V49.2661Z" fill="#436372"/>
<path d="M50.7109 13.1798H23.9381C23.202 10.9936 21.1343 9.41418 18.7031 9.41418C16.2719 9.41418 14.2041 10.9936 13.4681 13.1798H9.28906C8.31828 13.1798 7.53125 13.9668 7.53125 14.9376C7.53125 15.9084 8.31828 16.6954 9.28906 16.6954H13.4682C14.2043 18.8815 16.272 20.461 18.7032 20.461C21.1344 20.461 23.2021 18.8815 23.9382 16.6954H50.711C51.6818 16.6954 52.4688 15.9084 52.4688 14.9376C52.4688 13.9668 51.6818 13.1798 50.7109 13.1798V13.1798ZM18.7031 16.9454C17.596 16.9454 16.6953 16.0447 16.6953 14.9376C16.6953 13.8305 17.596 12.9298 18.7031 12.9298C19.8102 12.9298 20.7109 13.8305 20.7109 14.9376C20.7109 16.0447 19.8102 16.9454 18.7031 16.9454Z" fill="#436372"/>
<path d="M50.7109 28.2423H46.5317C45.7957 26.0561 43.7278 24.4767 41.2967 24.4767C38.8657 24.4767 36.7979 26.0561 36.0618 28.2423H9.28906C8.31828 28.2423 7.53125 29.0293 7.53125 30.0001C7.53125 30.9709 8.31828 31.7579 9.28906 31.7579H36.0618C36.7979 33.944 38.8658 35.5235 41.2968 35.5235C43.7279 35.5235 45.7958 33.944 46.5318 31.7579H50.711C51.6818 31.7579 52.4688 30.9709 52.4688 30.0001C52.4688 29.0293 51.6818 28.2423 50.7109 28.2423ZM41.2968 32.0079C40.1898 32.0079 39.2891 31.1072 39.2891 30.0001C39.2891 28.893 40.1898 27.9923 41.2968 27.9923C42.4039 27.9923 43.3046 28.893 43.3046 30.0001C43.3046 31.1072 42.4039 32.0079 41.2968 32.0079Z" fill="#436372"/>
<path d="M50.7109 43.3046H31.4694C30.7333 41.1185 28.6655 39.5391 26.2344 39.5391C23.8032 39.5391 21.7354 41.1185 20.9994 43.3046H9.28906C8.31828 43.3046 7.53125 44.0917 7.53125 45.0625C7.53125 46.0332 8.31828 46.8203 9.28906 46.8203H20.9994C21.7354 49.0064 23.8032 50.5859 26.2344 50.5859C28.6655 50.5859 30.7333 49.0064 31.4694 46.8203H50.711C51.6818 46.8203 52.4688 46.0332 52.4688 45.0625C52.4688 44.0917 51.6818 43.3046 50.7109 43.3046ZM26.2344 47.0704C25.1273 47.0704 24.2266 46.1696 24.2266 45.0626C24.2266 43.9555 25.1273 43.0548 26.2344 43.0548C27.3414 43.0548 28.2421 43.9554 28.2421 45.0625C28.2421 46.1695 27.3414 47.0704 26.2344 47.0704V47.0704Z" fill="#436372"/>
</svg>
