<svg width="22" height="22" viewBox="0 0 22 22" fill="none" xmlns="http://www.w3.org/2000/svg">
<g clip-path="url(#clip0)">
<path d="M20.0045 8.25H17.9997V10.2456H16.0042V12.2503H17.9997V14.2459H20.0045V12.2503H22.0001V10.2456H20.0045V8.25Z" fill="#A1A1A1"/>
<path d="M6.875 17.875C10.8423 17.875 13.4777 15.0902 13.4777 11.1595C13.4777 10.7094 13.431 10.362 13.3659 10.0155H6.87592V12.3787H10.7782C10.6187 13.3824 9.59658 15.3422 6.87592 15.3422C4.532 15.3422 2.618 13.4008 2.618 11C2.618 8.59925 4.53108 6.65683 6.87592 6.65683C8.217 6.65683 9.108 7.22883 9.61492 7.7165L11.4812 5.92533C10.2795 4.80058 8.73217 4.125 6.875 4.125C3.07633 4.125 0 7.20133 0 11C0 14.7987 3.07633 17.875 6.875 17.875V17.875Z" fill="#A1A1A1"/>
</g>
<defs>
<clipPath id="clip0">
<rect width="22" height="22" fill="white"/>
</clipPath>
</defs>
</svg>
