<svg width="22" height="22" viewBox="0 0 22 22" fill="none" xmlns="http://www.w3.org/2000/svg">
<g clip-path="url(#clip0)">
<path d="M21.9784 6.46806C21.9269 5.29912 21.7379 4.49548 21.4671 3.79911C21.1877 3.05994 20.7579 2.39816 20.1949 1.84802C19.6447 1.28931 18.9786 0.855178 18.248 0.580191C17.5476 0.309402 16.7482 0.12037 15.5792 0.0688306C14.4015 0.0129267 14.0277 0 11.0408 0C8.05386 0 7.67999 0.0129267 6.50668 0.0644657C5.33774 0.116005 4.5341 0.305205 3.83791 0.575827C3.09857 0.855178 2.43679 1.28495 1.88665 1.84802C1.32795 2.39816 0.89398 3.0643 0.618826 3.79492C0.348037 4.49548 0.159005 5.29475 0.107466 6.4637C0.0515619 7.64137 0.0386353 8.01524 0.0386353 11.0021C0.0386353 13.9891 0.0515619 14.3629 0.103101 15.5362C0.15464 16.7052 0.34384 17.5088 0.614629 18.2052C0.89398 18.9444 1.32795 19.6061 1.88665 20.1563C2.43679 20.715 3.10293 21.1491 3.83354 21.4241C4.5341 21.6949 5.33338 21.8839 6.50249 21.9355C7.67563 21.9872 8.04966 21.9999 11.0366 21.9999C14.0235 21.9999 14.3973 21.9872 15.5706 21.9355C16.7396 21.8839 17.5432 21.6949 18.2394 21.4241C19.7179 20.8525 20.8869 19.6835 21.4585 18.2052C21.7291 17.5046 21.9183 16.7052 21.9699 15.5362C22.0214 14.3629 22.0343 13.9891 22.0343 11.0021C22.0343 8.01524 22.03 7.64137 21.9784 6.46806ZM19.9973 15.4503C19.9499 16.5247 19.7695 17.1049 19.6191 17.4917C19.2494 18.4501 18.4887 19.2108 17.5303 19.5805C17.1435 19.7309 16.5591 19.9113 15.4889 19.9585C14.3285 20.0102 13.9805 20.023 11.0451 20.023C8.10976 20.023 7.75738 20.0102 6.6012 19.9585C5.52677 19.9113 4.94658 19.7309 4.55979 19.5805C4.08284 19.4042 3.64871 19.1248 3.29633 18.7595C2.93103 18.4028 2.65167 17.973 2.4754 17.4961C2.32498 17.1093 2.14451 16.5247 2.09734 15.4546C2.04563 14.2943 2.03287 13.9461 2.03287 11.0107C2.03287 8.07534 2.04563 7.72296 2.09734 6.56694C2.14451 5.49251 2.32498 4.91232 2.4754 4.52553C2.65167 4.04841 2.93103 3.61444 3.3007 3.2619C3.65727 2.89659 4.08704 2.61724 4.56415 2.44114C4.95095 2.29072 5.5355 2.11024 6.60556 2.0629C7.76595 2.01136 8.11413 1.99844 11.0493 1.99844C13.9891 1.99844 14.3371 2.01136 15.4933 2.0629C16.5677 2.11024 17.1479 2.29072 17.5347 2.44114C18.0116 2.61724 18.4457 2.89659 18.7981 3.2619C19.1634 3.61864 19.4428 4.04841 19.6191 4.52553C19.7695 4.91232 19.9499 5.49671 19.9973 6.56694C20.0488 7.72732 20.0618 8.07534 20.0618 11.0107C20.0618 13.9461 20.0488 14.2899 19.9973 15.4503Z" fill="#A1A1A1"/>
<path d="M11.0408 5.35059C7.92074 5.35059 5.38928 7.88187 5.38928 11.0021C5.38928 14.1223 7.92074 16.6536 11.0408 16.6536C14.161 16.6536 16.6923 14.1223 16.6923 11.0021C16.6923 7.88187 14.161 5.35059 11.0408 5.35059ZM11.0408 14.6681C9.01665 14.6681 7.37479 13.0264 7.37479 11.0021C7.37479 8.97779 9.01665 7.3361 11.0408 7.3361C13.0651 7.3361 14.7068 8.97779 14.7068 11.0021C14.7068 13.0264 13.0651 14.6681 11.0408 14.6681V14.6681Z" fill="#A1A1A1"/>
<path d="M18.2353 5.12723C18.2353 5.85583 17.6445 6.4466 16.9157 6.4466C16.1871 6.4466 15.5964 5.85583 15.5964 5.12723C15.5964 4.39846 16.1871 3.80786 16.9157 3.80786C17.6445 3.80786 18.2353 4.39846 18.2353 5.12723V5.12723Z" fill="#A1A1A1"/>
</g>
<defs>
<clipPath id="clip0">
<rect width="22" height="22" fill="white"/>
</clipPath>
</defs>
</svg>
