<?xml version="1.0" encoding="UTF-8"?>
<svg xmlns="http://www.w3.org/2000/svg" xmlns:xlink="http://www.w3.org/1999/xlink" width="13pt" height="13pt" viewBox="0 0 13 13" version="1.1">
<g id="surface1">
<path style=" stroke:none;fill-rule:nonzero;fill:rgb(0%,0%,0%);fill-opacity:1;" d="M 6.5 0.203125 C 3.023438 0.203125 0.203125 3.023438 0.203125 6.5 C 0.203125 9.976562 3.023438 12.796875 6.5 12.796875 C 9.976562 12.796875 12.796875 9.976562 12.796875 6.5 C 12.796875 3.023438 9.976562 0.203125 6.5 0.203125 Z M 6.5 11.578125 C 3.695312 11.578125 1.421875 9.304688 1.421875 6.5 C 1.421875 3.695312 3.695312 1.421875 6.5 1.421875 C 9.304688 1.421875 11.578125 3.695312 11.578125 6.5 C 11.578125 9.304688 9.304688 11.578125 6.5 11.578125 Z M 8.070312 8.925781 L 5.914062 7.359375 C 5.835938 7.300781 5.789062 7.210938 5.789062 7.113281 L 5.789062 2.945312 C 5.789062 2.777344 5.925781 2.640625 6.09375 2.640625 L 6.90625 2.640625 C 7.074219 2.640625 7.210938 2.777344 7.210938 2.945312 L 7.210938 6.542969 L 8.90625 7.777344 C 9.042969 7.875 9.070312 8.066406 8.972656 8.203125 L 8.496094 8.859375 C 8.398438 8.996094 8.207031 9.027344 8.070312 8.925781 Z M 8.070312 8.925781 "/>
</g>
</svg>
