<?xml version="1.0" encoding="UTF-8"?>
<svg xmlns="http://www.w3.org/2000/svg" xmlns:xlink="http://www.w3.org/1999/xlink" width="13pt" height="13pt" viewBox="0 0 13 13" version="1.1">
<g id="surface1">
<path style=" stroke:none;fill-rule:nonzero;fill:rgb(0%,0%,0%);fill-opacity:1;" d="M 6.5 6.5 C 8.550781 6.5 10.214844 5.046875 10.214844 3.25 C 10.214844 1.453125 8.550781 0 6.5 0 C 4.449219 0 2.785156 1.453125 2.785156 3.25 C 2.785156 5.046875 4.449219 6.5 6.5 6.5 Z M 9.101562 7.3125 L 8.617188 7.3125 C 7.972656 7.570312 7.253906 7.71875 6.5 7.71875 C 5.746094 7.71875 5.03125 7.570312 4.382812 7.3125 L 3.898438 7.3125 C 1.746094 7.3125 0 8.839844 0 10.726562 L 0 11.78125 C 0 12.453125 0.625 13 1.394531 13 L 11.605469 13 C 12.375 13 13 12.453125 13 11.78125 L 13 10.726562 C 13 8.839844 11.253906 7.3125 9.101562 7.3125 Z M 9.101562 7.3125 "/>
</g>
</svg>
