<svg width="18" height="18" viewBox="0 0 18 18" fill="none" xmlns="http://www.w3.org/2000/svg">
<path d="M15.1087 1.21289H2.87371C1.59449 1.21289 0.553711 2.25347 0.553711 3.53289V11.0205C0.553711 12.297 1.58996 13.3359 2.86547 13.3405V16.7382L7.74845 13.3405H15.1087C16.3879 13.3405 17.4287 12.2997 17.4287 11.0205V3.53289C17.4287 2.25347 16.3879 1.21289 15.1087 1.21289V1.21289ZM16.4399 11.0205C16.4399 11.7544 15.8428 12.3517 15.1087 12.3517H7.43822L3.85424 14.8457V12.3517H2.87371C2.13966 12.3517 1.54248 11.7544 1.54248 11.0205V3.53289C1.54248 2.79873 2.13966 2.20166 2.87371 2.20166H15.1087C15.8428 2.20166 16.4399 2.79873 16.4399 3.53289V11.0205Z" fill="black"/>
<path d="M5.07031 4.70667H12.9123V5.69543H5.07031V4.70667Z" fill="black"/>
<path d="M5.07031 6.81604H12.9123V7.80481H5.07031V6.81604Z" fill="black"/>
<path d="M5.07031 8.92542H12.9123V9.91418H5.07031V8.92542Z" fill="black"/>
</svg>
