<svg width="18" height="18" viewBox="0 0 18 18" fill="none" xmlns="http://www.w3.org/2000/svg">
<path d="M16.418 2.14453H1.58203C0.710789 2.14453 0 2.85455 0 3.72656V14.2734C0 15.1425 0.707625 15.8555 1.58203 15.8555H16.418C17.287 15.8555 18 15.1478 18 14.2734V3.72656C18 2.8575 17.2924 2.14453 16.418 2.14453ZM16.1995 3.19922L9.03354 10.3652L1.80559 3.19922H16.1995ZM1.05469 14.055V3.93993L6.13403 8.97571L1.05469 14.055ZM1.80046 14.8008L6.883 9.71824L8.66391 11.4839C8.87006 11.6883 9.20275 11.6876 9.40806 11.4822L11.1445 9.74577L16.1995 14.8008H1.80046ZM16.9453 14.055L11.8903 9L16.9453 3.94495V14.055Z" fill="black"/>
</svg>
