<svg width="37" height="35" viewBox="0 0 37 35" fill="none" xmlns="http://www.w3.org/2000/svg">
<g clip-path="url(#clip0)">
<path d="M36.8264 12.0293L31.4683 8.44916V3.21972C31.4146 2.70169 30.9927 2.28592 30.4477 2.21408H6.97409C6.42915 2.28599 6.0072 2.70169 5.95347 3.21972V8.40889L0.382719 12.0292C0.162057 12.1807 0.0223022 12.4158 0 12.6728V31.7802C0.0724416 32.3046 0.508719 32.7174 1.0631 32.7858H36.3587C36.8264 32.7858 36.9966 32.2629 36.9966 31.7802V12.6729C36.9966 12.4315 37.039 12.1901 36.8264 12.0293ZM31.4683 10.38L35.1254 12.7533L31.4683 15.368V10.38ZM7.65447 3.82313H29.7673V16.6151L18.7108 24.4994L7.65439 16.6151V3.82313H7.65447ZM5.95347 10.3398V15.4083L2.29632 12.7534L5.95347 10.3398ZM1.70099 14.4026L13.6079 22.9305L1.70099 30.5333V14.4026ZM3.74222 31.1769L15.0538 23.9764L18.073 26.1486C18.244 26.2736 18.4524 26.344 18.6684 26.3497C18.8385 26.3497 18.9235 26.2693 19.0936 26.1486L22.2404 23.8557L33.6795 31.1769H3.74222ZM35.2956 30.2517L23.6438 22.8501L35.2956 14.4026V30.2517Z" fill="#A3BBC8"/>
<path d="M11.907 9.0525H15.7341C16.2039 9.0525 16.5846 8.69232 16.5846 8.24798C16.5846 7.80363 16.2039 7.44345 15.7341 7.44345H11.907C11.4372 7.44345 11.0565 7.80363 11.0565 8.24798C11.0565 8.69232 11.4372 9.0525 11.907 9.0525Z" fill="#A3BBC8"/>
<path d="M11.907 12.6729H25.5149C25.9846 12.6729 26.3654 12.3127 26.3654 11.8684C26.3654 11.424 25.9846 11.0638 25.5149 11.0638H11.907C11.4372 11.0638 11.0565 11.424 11.0565 11.8684C11.0565 12.3127 11.4372 12.6729 11.907 12.6729Z" fill="#A3BBC8"/>
<path d="M26.3653 15.4887C26.3653 15.0444 25.9846 14.6842 25.5148 14.6842H11.907C11.4372 14.6842 11.0565 15.0444 11.0565 15.4887C11.0565 15.933 11.4372 16.2932 11.907 16.2932H25.5149C25.9846 16.2932 26.3653 15.933 26.3653 15.4887Z" fill="#A3BBC8"/>
</g>
<defs>
<clipPath id="clip0">
<rect width="37" height="35" fill="white"/>
</clipPath>
</defs>
</svg>
