<svg width="20" height="20" viewBox="0 0 20 20" fill="none" xmlns="http://www.w3.org/2000/svg">
<g clip-path="url(#clip0)">
<path d="M19.8844 4.17855C19.7699 4.01447 19.5857 3.91305 19.3856 3.9045L6.97939 3.36974C6.62344 3.35416 6.32598 3.62897 6.31076 3.98327C6.29563 4.33744 6.56999 4.63669 6.92425 4.6519L18.4905 5.1505L16.2163 12.2461H6.09601L4.26763 2.29064C4.22743 2.07244 4.07763 1.89042 3.87103 1.80936L0.876444 0.63291C0.546403 0.503695 0.173976 0.665807 0.0443584 0.995445C-0.0850354 1.32526 0.0770313 1.69791 0.406894 1.82753L3.06956 2.87356L4.93022 13.0037C4.9863 13.3083 5.25171 13.5295 5.56148 13.5295H5.87012L5.16533 15.4871C5.10634 15.6511 5.13064 15.8333 5.23103 15.9757C5.33129 16.1182 5.49434 16.203 5.6684 16.203H6.16275C5.85643 16.5439 5.6684 16.9928 5.6684 17.4864C5.6684 18.548 6.53217 19.4115 7.59351 19.4115C8.65484 19.4115 9.51862 18.548 9.51862 17.4864C9.51862 16.9928 9.33059 16.5439 9.02431 16.203H13.2215C12.9151 16.5439 12.7271 16.9928 12.7271 17.4864C12.7271 18.548 13.5906 19.4115 14.6522 19.4115C15.7138 19.4115 16.5773 18.548 16.5773 17.4864C16.5773 16.9928 16.3893 16.5439 16.0831 16.203H16.6843C16.9797 16.203 17.219 15.9636 17.219 15.6683C17.219 15.3729 16.9796 15.1335 16.6843 15.1335H6.42928L7.00674 13.5293H16.6842C16.9633 13.5293 17.2102 13.349 17.2952 13.0835L19.969 4.74129C20.0304 4.55089 19.9989 4.34272 19.8844 4.17855ZM7.59355 18.3422C7.12167 18.3422 6.73792 17.9585 6.73792 17.4866C6.73792 17.0148 7.12167 16.631 7.59355 16.631C8.06543 16.631 8.44914 17.0148 8.44914 17.4866C8.44914 17.9585 8.06543 18.3422 7.59355 18.3422ZM14.6522 18.3422C14.1803 18.3422 13.7966 17.9585 13.7966 17.4866C13.7966 17.0148 14.1803 16.631 14.6522 16.631C15.1241 16.631 15.5078 17.0148 15.5078 17.4866C15.5078 17.9585 15.1241 18.3422 14.6522 18.3422Z" fill="#243F4D"/>
</g>
<defs>
<clipPath id="clip0">
<rect width="20" height="20" fill="white"/>
</clipPath>
</defs>
</svg>
