<svg width="15" height="15" viewBox="0 0 15 15" fill="none" xmlns="http://www.w3.org/2000/svg">
<path d="M8.7607 2.94187C8.57344 2.76351 8.27648 2.77054 8.09812 2.95804C7.91953 3.14554 7.92703 3.44226 8.1143 3.62086L11.7101 7.03125H2.34375C2.085 7.03125 1.875 7.24125 1.875 7.5C1.875 7.75875 2.085 7.96875 2.34375 7.96875H11.6951L8.1143 11.3794C7.9268 11.558 7.91953 11.8547 8.09812 12.0422C8.19023 12.1387 8.31375 12.1875 8.4375 12.1875C8.55375 12.1875 8.67 12.1446 8.7607 12.0581L12.8503 8.16281C13.0275 7.98586 13.125 7.75054 13.125 7.5C13.125 7.24945 13.0275 7.01414 12.8421 6.82922L8.7607 2.94187Z" fill="#526278"/>
</svg>
