<svg width="15" height="15" viewBox="0 0 15 15" fill="none" xmlns="http://www.w3.org/2000/svg">
<g clip-path="url(#clip0)">
<path d="M3.125 0H0.625C0.28 0 0 0.28 0 0.625V3.125C0 3.47 0.28 3.75 0.625 3.75H3.125C3.47 3.75 3.75 3.47 3.75 3.125V0.625C3.75 0.28 3.47 0 3.125 0Z" fill="#8D8D8D"/>
<path d="M3.125 5.625H0.625C0.28 5.625 0 5.905 0 6.25V8.75C0 9.095 0.28 9.375 0.625 9.375H3.125C3.47 9.375 3.75 9.095 3.75 8.75V6.25C3.75 5.905 3.47 5.625 3.125 5.625Z" fill="#8D8D8D"/>
<path d="M3.125 11.25H0.625C0.28 11.25 0 11.53 0 11.875V14.375C0 14.72 0.28 15 0.625 15H3.125C3.47 15 3.75 14.72 3.75 14.375V11.875C3.75 11.53 3.47 11.25 3.125 11.25Z" fill="#8D8D8D"/>
<path d="M8.75 0H6.25C5.905 0 5.625 0.28 5.625 0.625V3.125C5.625 3.47 5.905 3.75 6.25 3.75H8.75C9.095 3.75 9.375 3.47 9.375 3.125V0.625C9.375 0.28 9.095 0 8.75 0Z" fill="#8D8D8D"/>
<path d="M8.75 5.625H6.25C5.905 5.625 5.625 5.905 5.625 6.25V8.75C5.625 9.095 5.905 9.375 6.25 9.375H8.75C9.095 9.375 9.375 9.095 9.375 8.75V6.25C9.375 5.905 9.095 5.625 8.75 5.625Z" fill="#8D8D8D"/>
<path d="M8.75 11.25H6.25C5.905 11.25 5.625 11.53 5.625 11.875V14.375C5.625 14.72 5.905 15 6.25 15H8.75C9.095 15 9.375 14.72 9.375 14.375V11.875C9.375 11.53 9.095 11.25 8.75 11.25Z" fill="#8D8D8D"/>
<path d="M14.375 0H11.875C11.53 0 11.25 0.28 11.25 0.625V3.125C11.25 3.47 11.53 3.75 11.875 3.75H14.375C14.72 3.75 15 3.47 15 3.125V0.625C15 0.28 14.72 0 14.375 0Z" fill="#8D8D8D"/>
<path d="M14.375 5.625H11.875C11.53 5.625 11.25 5.905 11.25 6.25V8.75C11.25 9.095 11.53 9.375 11.875 9.375H14.375C14.72 9.375 15 9.095 15 8.75V6.25C15 5.905 14.72 5.625 14.375 5.625Z" fill="#8D8D8D"/>
<path d="M14.375 11.25H11.875C11.53 11.25 11.25 11.53 11.25 11.875V14.375C11.25 14.72 11.53 15 11.875 15H14.375C14.72 15 15 14.72 15 14.375V11.875C15 11.53 14.72 11.25 14.375 11.25Z" fill="#8D8D8D"/>
</g>
<defs>
<clipPath id="clip0">
<rect width="15" height="15" fill="white"/>
</clipPath>
</defs>
</svg>
