<svg width="20" height="20" viewBox="0 0 20 20" fill="none" xmlns="http://www.w3.org/2000/svg">
<path d="M18.5408 2.90117C17.5543 1.78187 16.1859 1.16547 14.6875 1.16547C12.5802 1.16547 11.246 2.42406 10.4979 3.47992C10.3037 3.7539 10.1386 4.02863 10 4.28715C9.86137 4.02863 9.69629 3.7539 9.50215 3.47992C8.75402 2.42406 7.41984 1.16547 5.3125 1.16547C3.81414 1.16547 2.44566 1.78191 1.45918 2.90121C0.518242 3.96894 0 5.39894 0 6.92777C0 8.59195 0.649727 10.1398 2.04473 11.7989C3.29148 13.2817 5.08512 14.8101 7.16211 16.58C7.93605 17.2395 8.73641 17.9216 9.58848 18.6671L9.61406 18.6895C9.72453 18.7862 9.86227 18.8345 10 18.8345C10.1377 18.8345 10.2755 18.7862 10.3859 18.6895L10.4115 18.6671C11.2636 17.9216 12.0639 17.2396 12.838 16.5799C14.9149 14.8102 16.7085 13.2817 17.9553 11.7989C19.3503 10.1398 20 8.59195 20 6.92777C20 5.39894 19.4818 3.96894 18.5408 2.90117ZM12.0779 15.688C11.4107 16.2566 10.724 16.8417 10 17.4711C9.27602 16.8418 8.58934 16.2566 7.92203 15.688C3.85723 12.2242 1.17188 9.93586 1.17188 6.92777C1.17188 5.68441 1.58613 4.52957 2.33836 3.67601C3.09922 2.81277 4.15543 2.33734 5.3125 2.33734C6.9191 2.33734 7.95766 3.32711 8.54594 4.15742C9.07363 4.90211 9.34898 5.65281 9.44289 5.94097C9.52145 6.18219 9.74633 6.34543 10 6.34543C10.2537 6.34543 10.4786 6.18219 10.5571 5.94097C10.651 5.65281 10.9264 4.90211 11.4541 4.15738C12.0423 3.32711 13.0809 2.33734 14.6875 2.33734C15.8446 2.33734 16.9008 2.81277 17.6616 3.67601C18.4139 4.52957 18.8281 5.68441 18.8281 6.92777C18.8281 9.93586 16.1428 12.2242 12.0779 15.688Z" fill="#243F4D"/>
</svg>
