<svg width="20" height="20" viewBox="0 0 20 20" fill="none" xmlns="http://www.w3.org/2000/svg">
<g clip-path="url(#clip0)">
<path d="M2.25361 2.25155C5.2392 -0.742308 10.0865 -0.749062 13.0804 2.23653C15.9691 5.1173 16.0914 9.75725 13.3583 12.7861L13.943 13.3708C14.4153 12.8984 15.1812 12.8983 15.6536 13.3706C15.6537 13.3707 15.6537 13.3707 15.6538 13.3708L19.6455 17.3625C20.1179 17.8349 20.118 18.6008 19.6457 19.0732C19.6456 19.0732 19.6456 19.0733 19.6455 19.0733L19.0754 19.6435C18.603 20.1157 17.8373 20.1157 17.365 19.6435L13.3732 15.6517C12.9008 15.1794 12.9007 14.4135 13.3731 13.9411C13.3731 13.941 13.3732 13.941 13.3732 13.9409L12.7886 13.3563C9.65164 16.1912 4.81054 15.9463 1.97565 12.8094C-0.762627 9.77933 -0.640304 5.13332 2.25361 2.25155ZM13.943 15.0812L17.9347 19.0729C18.0922 19.2303 18.3474 19.2303 18.5048 19.0729L19.075 18.5024C19.2321 18.345 19.2321 18.0901 19.075 17.9327L15.0832 13.9409C14.9238 13.7885 14.6726 13.7885 14.5131 13.9409L13.943 14.5115C13.7858 14.6689 13.7858 14.9238 13.943 15.0812ZM2.82334 12.5156C5.50023 15.1924 9.84029 15.1923 12.5171 12.5154C15.1939 9.83855 15.1938 5.49848 12.5169 2.82169C9.84009 0.144948 5.50018 0.144948 2.82334 2.82169C0.150837 5.50039 0.150837 9.83688 2.82334 12.5156Z" fill="#243F4D"/>
<path d="M3.39398 3.39212L3.96411 3.96225C1.92063 6.01074 1.92063 9.32672 3.96411 11.3752L3.39398 11.9453C1.03544 9.58205 1.03544 5.75541 3.39398 3.39212Z" fill="#243F4D"/>
</g>
<defs>
<clipPath id="clip0">
<rect width="20" height="20" fill="white" transform="matrix(-1 0 0 1 20 0)"/>
</clipPath>
</defs>
</svg>
