<svg display="none" xmlns="http://www.w3.org/2000/svg">
  <symbol id="cart">
    <g>
      <path
        d="M21.934,5.216 L18.217,13.776 C18.082,14.075 17.797,14.264 17.471,14.264 L7.257,14.264 C6.891,14.264 6.565,14.020 6.470,13.666 L3.147,1.629 L0.814,1.629 C0.366,1.629 -0.000,1.262 -0.000,0.814 C-0.000,0.365 0.366,-0.002 0.814,-0.002 L3.757,-0.002 C4.124,-0.002 4.449,0.243 4.544,0.596 L7.867,12.634 L16.929,12.634 L19.940,5.705 L9.902,5.705 C9.454,5.705 9.088,5.338 9.088,4.889 C9.088,4.440 9.454,4.074 9.902,4.074 L21.188,4.074 C21.459,4.074 21.717,4.211 21.866,4.440 C22.015,4.672 22.043,4.957 21.934,5.216 ZM6.484,16.303 C7.501,16.303 8.329,17.131 8.329,18.150 C8.329,19.169 7.501,19.998 6.484,19.998 C5.466,19.998 4.639,19.169 4.639,18.150 C4.639,17.131 5.466,16.303 6.484,16.303 ZM17.892,16.303 C18.909,16.235 19.791,17.009 19.859,18.015 C19.886,18.517 19.737,18.993 19.411,19.360 C19.085,19.740 18.638,19.958 18.149,19.998 C18.109,19.998 18.055,19.998 18.014,19.998 C17.051,19.998 16.250,19.238 16.183,18.273 C16.115,17.267 16.874,16.371 17.892,16.303 Z" />
    </g>
  </symbol>

  <symbol id="heart">
    <g>
      <path
        d="M21.990,5.820 C21.907,4.269 21.250,2.813 20.141,1.720 C19.015,0.610 17.545,-0.001 16.002,-0.001 C13.691,-0.001 12.054,1.784 11.175,2.744 C11.125,2.798 11.071,2.856 11.019,2.913 C10.991,2.882 10.963,2.849 10.936,2.819 C10.132,1.903 8.460,-0.001 5.998,-0.001 C4.455,-0.001 2.985,0.610 1.859,1.720 C0.750,2.813 0.093,4.269 0.010,5.820 C-0.072,7.361 0.320,8.700 1.281,10.158 C2.142,11.465 4.385,13.532 6.044,14.906 C7.749,16.316 9.994,17.998 11.009,17.998 C12.041,17.998 14.278,16.319 15.974,14.912 C17.620,13.545 19.850,11.479 20.719,10.157 C21.366,9.174 22.095,7.791 21.990,5.820 ZM19.614,9.430 C18.982,10.391 17.202,12.166 15.183,13.848 C12.777,15.852 11.352,16.643 11.011,16.673 C10.669,16.638 9.241,15.841 6.823,13.831 C4.793,12.145 3.010,10.377 2.386,9.430 C1.591,8.223 1.266,7.132 1.332,5.891 C1.467,3.372 3.560,1.322 5.998,1.322 C7.861,1.322 9.214,2.864 9.941,3.692 C10.369,4.179 10.604,4.447 11.000,4.447 C11.409,4.447 11.672,4.160 12.151,3.638 C12.945,2.772 14.273,1.322 16.002,1.322 C18.440,1.322 20.533,3.372 20.668,5.891 C20.735,7.146 20.420,8.204 19.614,9.430 Z" />
    </g>
  </symbol>
  <symbol id="grid">
    <g>
      <path
        d="M-0.000,3.750 L3.750,3.750 L3.750,-0.000 L-0.000,-0.000 L-0.000,3.750 ZM5.625,15.000 L9.375,15.000 L9.375,11.250 L5.625,11.250 L5.625,15.000 ZM-0.000,15.000 L3.750,15.000 L3.750,11.250 L-0.000,11.250 L-0.000,15.000 ZM-0.000,9.375 L3.750,9.375 L3.750,5.625 L-0.000,5.625 L-0.000,9.375 ZM5.625,9.375 L9.375,9.375 L9.375,5.625 L5.625,5.625 L5.625,9.375 ZM11.250,-0.000 L11.250,3.750 L15.000,3.750 L15.000,-0.000 L11.250,-0.000 ZM5.625,3.750 L9.375,3.750 L9.375,-0.000 L5.625,-0.000 L5.625,3.750 ZM11.250,9.375 L15.000,9.375 L15.000,5.625 L11.250,5.625 L11.250,9.375 ZM11.250,15.000 L15.000,15.000 L15.000,11.250 L11.250,11.250 L11.250,15.000 Z" />
    </g>
  </symbol>
  <symbol id="list">
    <g>
      <path
        d="M5.835,14.998 L5.835,10.827 L19.994,10.827 L19.994,14.998 L5.835,14.998 ZM5.835,5.413 L19.994,5.413 L19.994,9.585 L5.835,9.585 L5.835,5.413 ZM5.835,0.000 L19.994,0.000 L19.994,4.172 L5.835,4.172 L5.835,0.000 ZM0.007,10.827 L4.429,10.827 L4.429,14.998 L0.007,14.998 L0.007,10.827 ZM0.007,5.413 L4.429,5.413 L4.429,9.585 L0.007,9.585 L0.007,5.413 ZM0.007,0.000 L4.429,0.000 L4.429,4.172 L0.007,4.172 L0.007,0.000 Z" />
    </g>
  </symbol>
  <symbol id="search">
    <g>
      <path
        d="M759.45,1579.8l-4.588-4.59a8.827,8.827,0,0,1-2.651,2.65l4.588,4.59A1.874,1.874,0,0,0,759.45,1579.8Zm-4.45-9.3a7.5,7.5,0,1,0-7.5,7.5A7.5,7.5,0,0,0,755,1570.5Zm-7.5,5.62a5.625,5.625,0,1,1,5.625-5.62A5.628,5.628,0,0,1,747.5,1576.12Zm-4.375-5.62h1.25a3.135,3.135,0,0,1,3.125-3.13v-1.25A4.386,4.386,0,0,0,743.125,1570.5Z"
        transform="translate(-740 -1563)" />
    </g>
  </symbol>
  <symbol id="arrow">
    <g>
      <path
        d="M0.296,5.472 L0.288,5.470 L17.244,5.470 L17.144,8.329 C17.089,8.383 17.060,8.458 17.060,8.534 C17.060,8.611 17.089,8.684 17.144,8.738 L17.316,8.912 C17.370,8.966 17.443,8.996 17.520,8.996 C17.597,8.996 17.669,8.966 17.724,8.912 L21.916,4.700 C21.970,4.646 22.000,4.573 22.000,4.496 C22.000,4.419 21.970,4.346 21.916,4.292 L17.724,0.079 C17.669,0.026 17.597,-0.004 17.520,-0.004 C17.443,-0.004 17.370,0.026 17.316,0.079 L17.144,0.253 C17.089,0.307 17.060,0.379 17.060,0.457 C17.060,0.534 17.089,0.603 17.144,0.656 L17.257,3.521 L0.292,3.521 C0.133,3.521 -0.000,3.658 -0.000,3.817 L-0.000,5.187 C-0.000,5.346 0.137,5.472 0.296,5.472 Z" />
    </g>
  </symbol>
  <symbol id="arrow1">
    <g>
      <path
        d="M1.333,11.687 C1.184,11.687 1.034,11.626 0.922,11.504 C0.819,11.390 0.767,11.245 0.767,11.100 C0.767,10.943 0.826,10.789 0.944,10.673 L5.491,6.198 L0.944,1.724 C0.826,1.609 0.767,1.453 0.767,1.297 C0.767,1.152 0.819,1.007 0.922,0.893 C1.138,0.657 1.496,0.647 1.723,0.870 L6.700,5.768 C6.705,5.772 6.709,5.777 6.714,5.782 C6.762,5.831 6.801,5.889 6.827,5.951 L6.827,5.951 C6.828,5.951 6.828,5.951 6.828,5.951 C6.862,6.029 6.880,6.112 6.880,6.195 C6.880,6.196 6.880,6.197 6.880,6.198 C6.880,6.284 6.862,6.369 6.827,6.447 L6.827,6.447 C6.827,6.448 6.826,6.448 6.826,6.448 C6.826,6.449 6.826,6.449 6.826,6.449 C6.826,6.449 6.826,6.449 6.826,6.450 C6.799,6.509 6.762,6.565 6.715,6.614 C6.710,6.619 6.705,6.623 6.700,6.628 L1.723,11.527 C1.614,11.635 1.473,11.687 1.333,11.687 Z" />
    </g>
  </symbol>
  <symbol id="clock">
    <g>
      <path
        d="M 6.5 0.203125 C 3.023438 0.203125 0.203125 3.023438 0.203125 6.5 C 0.203125 9.976562 3.023438 12.796875 6.5 12.796875 C 9.976562 12.796875 12.796875 9.976562 12.796875 6.5 C 12.796875 3.023438 9.976562 0.203125 6.5 0.203125 Z M 6.5 11.578125 C 3.695312 11.578125 1.421875 9.304688 1.421875 6.5 C 1.421875 3.695312 3.695312 1.421875 6.5 1.421875 C 9.304688 1.421875 11.578125 3.695312 11.578125 6.5 C 11.578125 9.304688 9.304688 11.578125 6.5 11.578125 Z M 8.070312 8.925781 L 5.914062 7.359375 C 5.835938 7.300781 5.789062 7.210938 5.789062 7.113281 L 5.789062 2.945312 C 5.789062 2.777344 5.925781 2.640625 6.09375 2.640625 L 6.90625 2.640625 C 7.074219 2.640625 7.210938 2.777344 7.210938 2.945312 L 7.210938 6.542969 L 8.90625 7.777344 C 9.042969 7.875 9.070312 8.066406 8.972656 8.203125 L 8.496094 8.859375 C 8.398438 8.996094 8.207031 9.027344 8.070312 8.925781 Z M 8.070312 8.925781 " />
    </g>
  </symbol>
  <symbol id="user">
    <g>
      <path
        d="M 6.5 6.5 C 8.550781 6.5 10.214844 5.046875 10.214844 3.25 C 10.214844 1.453125 8.550781 0 6.5 0 C 4.449219 0 2.785156 1.453125 2.785156 3.25 C 2.785156 5.046875 4.449219 6.5 6.5 6.5 Z M 9.101562 7.3125 L 8.617188 7.3125 C 7.972656 7.570312 7.253906 7.71875 6.5 7.71875 C 5.746094 7.71875 5.03125 7.570312 4.382812 7.3125 L 3.898438 7.3125 C 1.746094 7.3125 0 8.839844 0 10.726562 L 0 11.78125 C 0 12.453125 0.625 13 1.394531 13 L 11.605469 13 C 12.375 13 13 12.453125 13 11.78125 L 13 10.726562 C 13 8.839844 11.253906 7.3125 9.101562 7.3125 Z M 9.101562 7.3125 " />
    </g>
  </symbol>
  <symbol id="burger">
    <g>
      <path d="M0 0H30V2H0V0Z" fill="black"></path>
      <path d="M0 8H30V10H0V8Z" fill="black"></path>
      <rect y="16" width="30" height="2" fill="black"></rect>
    </g>
  </symbol>

  <symbol id="arrow__left">
    <g>
      <path fill-rule="evenodd" fill="rgb(163, 187, 200)"
        d="M21.704,3.526 L21.712,3.529 L4.756,3.529 L4.856,0.670 C4.910,0.616 4.940,0.542 4.940,0.465 C4.940,0.388 4.910,0.315 4.856,0.261 L4.684,0.087 C4.629,0.033 4.557,0.003 4.480,0.003 C4.403,0.003 4.331,0.033 4.276,0.087 L0.084,4.298 C0.030,4.353 -0.000,4.426 -0.000,4.503 C-0.000,4.580 0.030,4.653 0.084,4.707 L4.276,8.920 C4.331,8.973 4.403,9.003 4.480,9.003 C4.557,9.003 4.629,8.973 4.684,8.920 L4.856,8.746 C4.910,8.692 4.940,8.619 4.940,8.542 C4.940,8.465 4.910,8.396 4.856,8.342 L4.743,5.478 L21.708,5.478 C21.867,5.478 22.000,5.340 22.000,5.181 L22.000,3.812 C22.000,3.653 21.863,3.526 21.704,3.526 Z" />
    </g>
  </symbol>

  <symbol id="arrow__right">
    <g>
      <path
        d="M0.296,5.473 L0.288,5.471 L17.244,5.471 L17.144,8.329 C17.089,8.384 17.060,8.458 17.060,8.534 C17.060,8.612 17.089,8.684 17.144,8.739 L17.316,8.912 C17.371,8.967 17.443,8.996 17.520,8.996 C17.597,8.996 17.669,8.967 17.724,8.913 L21.916,4.701 C21.970,4.647 22.000,4.573 22.000,4.497 C22.000,4.420 21.970,4.347 21.916,4.293 L17.724,0.080 C17.669,0.026 17.597,-0.003 17.520,-0.003 C17.443,-0.003 17.371,0.026 17.316,0.080 L17.144,0.254 C17.089,0.307 17.060,0.380 17.060,0.458 C17.060,0.535 17.089,0.604 17.144,0.657 L17.257,3.522 L0.292,3.522 C0.133,3.522 -0.000,3.659 -0.000,3.818 L-0.000,5.188 C-0.000,5.347 0.137,5.473 0.296,5.473 Z" />
    </g>
  </symbol>

  <symbol id="search-icon">
    <g>
      <path fill-rule="evenodd" fill="rgb(9, 64, 116)"
        d="M17.249,17.920 C17.098,17.920 16.946,17.862 16.830,17.746 L11.531,12.448 C10.398,13.393 8.941,13.962 7.353,13.962 C3.752,13.962 0.822,11.032 0.822,7.431 C0.822,3.829 3.752,0.899 7.353,0.899 C10.955,0.899 13.884,3.829 13.884,7.431 C13.884,9.018 13.316,10.475 12.371,11.609 L17.669,16.907 C17.785,17.023 17.843,17.175 17.843,17.327 C17.843,17.478 17.785,17.630 17.669,17.746 C17.553,17.862 17.401,17.920 17.249,17.920 ZM7.353,2.087 C4.407,2.087 2.010,4.484 2.010,7.431 C2.010,10.377 4.407,12.775 7.353,12.775 C10.300,12.775 12.698,10.377 12.698,7.431 C12.698,4.484 10.300,2.087 7.353,2.087 Z" />
    </g>
  </symbol>

  <symbol id="google+">
    <g>
      <path fill-rule="evenodd" fill="rgb(161, 161, 161)"
        d="M18.929,4.964 L18.929,5.019 L18.918,6.461 L18.917,6.521 L18.857,6.521 L16.926,6.521 L16.911,8.452 L16.911,8.507 L16.856,8.507 L15.408,8.507 L15.353,8.507 L15.354,8.452 L15.368,6.521 L13.438,6.521 L13.377,6.521 L13.378,6.461 L13.389,5.019 L13.389,4.964 L13.450,4.964 L15.380,4.964 L15.395,3.028 L15.395,2.973 L15.450,2.973 L16.898,2.973 L16.953,2.973 L16.953,3.028 L16.938,4.964 L18.869,4.964 L18.929,4.964 ZM8.139,11.541 C7.632,11.672 7.117,11.736 6.599,11.736 C6.489,11.736 6.378,11.733 6.267,11.727 C5.149,11.661 4.132,11.310 3.231,10.646 C2.069,9.791 1.338,8.650 1.030,7.240 C0.919,6.730 0.879,6.220 0.922,5.705 C1.002,4.487 1.427,3.395 2.208,2.446 C3.016,1.453 4.046,0.806 5.278,0.494 C5.591,0.411 5.904,0.362 6.222,0.345 C6.403,0.340 6.585,0.329 6.766,0.329 C7.731,0.340 8.634,0.581 9.464,1.069 C10.021,1.388 10.337,1.711 10.473,1.810 C9.904,2.369 9.357,2.918 8.799,3.466 C8.384,3.109 7.926,2.781 7.132,2.660 C6.967,2.636 6.804,2.624 6.645,2.624 C5.051,2.624 3.715,3.777 3.360,5.287 C3.275,5.627 3.251,5.973 3.280,6.319 C3.402,7.723 4.342,8.875 5.611,9.286 C5.935,9.388 6.270,9.436 6.607,9.436 C6.686,9.436 6.765,9.434 6.844,9.429 C7.443,9.390 8.003,9.231 8.510,8.897 C9.365,8.315 9.641,7.405 9.643,7.180 L6.588,7.180 C6.588,7.105 6.599,5.677 6.604,4.980 L6.610,4.887 L11.974,4.887 C12.263,6.560 12.003,8.320 10.961,9.697 C10.241,10.646 9.282,11.244 8.139,11.541 Z" />
    </g>
  </symbol>

  <symbol id="instagram">
    <g>
      <path fill-rule="evenodd" fill="rgb(161, 161, 161)"
        d="M13.920,10.779 C13.496,12.337 12.480,13.258 10.904,13.511 C10.315,13.606 8.724,13.663 7.136,13.663 C5.510,13.663 3.886,13.603 3.340,13.461 C1.791,13.061 0.867,12.052 0.621,10.483 C0.437,9.331 0.418,3.978 0.750,2.815 C1.184,1.301 2.195,0.412 3.727,0.160 C4.421,0.046 5.779,0.006 7.150,0.006 C8.425,0.006 9.711,0.041 10.485,0.083 C11.423,0.133 12.281,0.434 12.978,1.104 C13.643,1.740 13.983,2.535 14.068,3.435 C14.170,4.509 14.236,9.589 13.920,10.779 ZM12.839,3.550 C12.717,2.348 11.982,1.559 10.794,1.372 C10.205,1.283 8.788,1.243 7.378,1.243 C6.018,1.243 4.664,1.280 4.069,1.344 C2.878,1.482 2.077,2.217 1.886,3.402 C1.691,4.657 1.693,9.353 1.839,10.297 C1.991,11.278 2.546,11.953 3.525,12.227 C4.055,12.376 5.643,12.429 7.199,12.429 C8.632,12.429 10.039,12.384 10.567,12.326 C11.770,12.194 12.565,11.454 12.755,10.258 C12.951,9.057 12.951,4.674 12.839,3.550 ZM10.982,4.021 C10.527,4.016 10.167,3.648 10.171,3.199 C10.174,2.747 10.539,2.382 10.990,2.382 L10.999,2.382 C11.450,2.382 11.814,2.749 11.811,3.204 C11.807,3.654 11.437,4.021 10.982,4.021 ZM7.292,10.340 C5.355,10.340 3.804,8.771 3.818,6.835 C3.834,4.899 5.414,3.330 7.350,3.336 C9.281,3.336 10.838,4.905 10.823,6.841 C10.809,8.771 9.228,10.340 7.292,10.340 ZM7.357,4.570 L7.337,4.570 C6.096,4.570 5.073,5.569 5.053,6.813 C5.033,8.064 6.028,9.090 7.279,9.100 L7.299,9.101 C8.541,9.101 9.563,8.101 9.584,6.857 C9.604,5.601 8.608,4.581 7.357,4.570 Z" />
    </g>
  </symbol>

  <symbol id="twitter">
    <g>
      <path fill-rule="evenodd" fill="rgb(161, 161, 161)"
        d="M14.690,2.277 C14.585,2.436 14.480,2.584 14.358,2.727 C14.047,3.111 13.688,3.451 13.286,3.742 L13.236,3.835 C13.249,4.268 13.229,4.702 13.171,5.135 C13.054,6.045 12.790,6.917 12.399,7.746 C11.987,8.601 11.460,9.375 10.797,10.055 C9.669,11.212 8.319,11.959 6.748,12.304 C6.209,12.419 5.666,12.480 5.112,12.496 C5.023,12.498 4.935,12.500 4.847,12.500 C3.259,12.500 1.787,12.076 0.431,11.234 L0.361,11.191 C0.593,11.215 0.822,11.228 1.050,11.228 C1.825,11.228 2.570,11.083 3.298,10.790 C3.799,10.582 4.262,10.318 4.698,9.973 C3.179,9.924 2.233,8.826 1.987,7.938 C2.169,7.973 2.351,7.990 2.532,7.990 C2.769,7.990 3.006,7.961 3.244,7.905 L3.288,7.883 C2.461,7.691 1.828,7.252 1.394,6.539 C1.102,6.067 0.969,5.546 0.973,4.981 C1.388,5.201 1.815,5.321 2.276,5.332 C1.659,4.888 1.247,4.301 1.083,3.555 C0.918,2.809 1.033,2.101 1.417,1.432 C2.988,3.303 4.988,4.329 7.438,4.498 C7.423,4.378 7.407,4.279 7.391,4.175 C7.314,3.484 7.462,2.842 7.839,2.261 C8.311,1.526 8.978,1.070 9.835,0.933 C10.017,0.903 10.195,0.888 10.368,0.888 C11.136,0.888 11.814,1.182 12.396,1.751 C12.432,1.783 12.463,1.801 12.504,1.801 C12.517,1.801 12.532,1.799 12.549,1.794 C13.153,1.668 13.726,1.449 14.260,1.142 L14.298,1.120 C14.085,1.800 13.658,2.326 13.052,2.716 C13.623,2.656 14.162,2.502 14.690,2.277 Z" />
    </g>
  </symbol>

  <symbol id="facebook">
    <g>
      <path fill-rule="evenodd" fill="rgb(161, 161, 161)"
        d="M6.190,0.125 C6.603,0.125 7.018,0.147 7.430,0.165 C7.698,0.176 7.967,0.215 8.219,0.242 L8.200,2.727 L8.002,2.727 C7.730,2.727 7.457,2.724 7.184,2.724 C6.980,2.724 6.775,2.725 6.571,2.732 C5.912,2.754 5.427,3.001 5.394,3.824 C5.373,4.416 5.358,5.725 5.357,5.793 C5.391,5.793 6.042,5.795 6.697,5.795 C7.024,5.795 7.344,5.795 7.568,5.793 L8.099,5.793 C7.966,6.748 7.844,7.663 7.711,8.585 L5.357,8.585 L5.304,15.556 L2.414,15.556 L2.467,8.574 L0.103,8.574 L0.124,5.798 L2.499,5.798 L2.501,5.590 C2.505,5.031 2.498,4.471 2.519,3.912 C2.527,3.561 2.546,3.199 2.610,2.847 C2.770,1.998 3.164,1.284 3.876,0.774 C4.499,0.330 5.208,0.143 5.960,0.127 C6.036,0.125 6.113,0.125 6.190,0.125 Z" />
    </g>
  </symbol>

  <symbol id="arrow-right">
    <g>
      <path style=" stroke:none;fill-rule:nonzero;fill:#516278;fill-opacity:1;"
        d="M 13.777344 6.457031 L 8.71875 1.398438 C 8.574219 1.253906 8.382812 1.175781 8.179688 1.175781 C 7.972656 1.175781 7.78125 1.253906 7.636719 1.398438 L 7.175781 1.859375 C 7.035156 2.003906 6.953125 2.195312 6.953125 2.402344 C 6.953125 2.605469 7.035156 2.804688 7.175781 2.949219 L 10.128906 5.90625 L 0.757812 5.90625 C 0.332031 5.90625 0 6.234375 0 6.660156 L 0 7.308594 C 0 7.730469 0.332031 8.09375 0.757812 8.09375 L 10.160156 8.09375 L 7.175781 11.066406 C 7.035156 11.210938 6.953125 11.398438 6.953125 11.605469 C 6.953125 11.808594 7.035156 12 7.175781 12.144531 L 7.636719 12.601562 C 7.78125 12.746094 7.972656 12.824219 8.179688 12.824219 C 8.382812 12.824219 8.574219 12.742188 8.71875 12.597656 L 13.777344 7.542969 C 13.921875 7.398438 14 7.207031 14 7 C 14 6.792969 13.921875 6.601562 13.777344 6.457031 Z M 13.777344 6.457031 " />
    </g>
  </symbol>

  <symbol id="user-icon">
    <g>
      <path
        d="M13.810,12.755 C13.810,12.982 13.618,13.166 13.382,13.166 L0.549,13.166 C0.313,13.166 0.121,12.982 0.121,12.755 C0.121,9.765 2.218,7.264 5.062,6.465 C4.027,5.848 3.330,4.754 3.330,3.499 C3.330,1.571 4.961,0.003 6.966,0.003 C8.970,0.003 10.602,1.571 10.602,3.499 C10.602,4.754 9.905,5.848 8.869,6.465 C11.713,7.264 13.810,9.765 13.810,12.755 ZM9.746,3.499 C9.746,2.025 8.499,0.826 6.966,0.826 C5.433,0.826 4.185,2.025 4.185,3.499 C4.185,4.974 5.433,6.173 6.966,6.173 C8.499,6.173 9.746,4.974 9.746,3.499 ZM6.966,6.996 C3.807,6.996 1.212,9.359 0.992,12.343 L12.939,12.343 C12.719,9.359 10.124,6.996 6.966,6.996 Z" />
    </g>
  </symbol>

  <symbol id="email">
    <g>
      <path
        d="M17.624,12.629 C17.624,12.629 17.624,12.631 17.623,12.631 C17.623,12.632 17.621,12.632 17.621,12.633 C17.388,12.856 17.068,12.994 16.714,12.994 L1.286,12.994 C0.932,12.994 0.612,12.856 0.379,12.632 C0.378,12.632 0.377,12.632 0.377,12.631 C0.376,12.631 0.376,12.630 0.376,12.629 C0.144,12.405 -0.000,12.097 -0.000,11.757 L-0.000,1.858 C-0.000,1.176 0.577,0.621 1.286,0.621 L16.714,0.621 C17.423,0.621 18.000,1.176 18.000,1.858 L18.000,11.757 C18.000,12.097 17.856,12.405 17.624,12.629 ZM7.536,6.325 L1.463,12.169 L16.537,12.169 L10.463,6.325 L9.737,6.814 C9.517,6.963 9.258,7.037 9.000,7.037 C8.741,7.037 8.483,6.963 8.263,6.814 L7.536,6.325 ZM0.863,1.830 C0.862,1.840 0.857,1.848 0.857,1.858 L0.857,11.586 L6.823,5.844 L0.863,1.830 ZM1.788,1.446 L8.754,6.138 C8.901,6.237 9.099,6.237 9.246,6.138 L16.211,1.446 L1.788,1.446 ZM17.143,1.858 C17.143,1.848 17.137,1.840 17.137,1.830 L11.177,5.844 L17.143,11.586 L17.143,1.858 Z" />
    </g>
  </symbol>

  <symbol id="message">
    <g>
      <path
        d="M16.714,12.518 L5.766,12.518 L3.303,14.880 C3.221,14.958 3.111,15.000 3.000,15.000 C2.945,15.000 2.889,14.990 2.836,14.969 C2.676,14.905 2.571,14.755 2.571,14.589 L2.571,12.518 L1.286,12.518 C0.577,12.518 -0.000,11.965 -0.000,11.285 L-0.000,1.424 C-0.000,0.744 0.577,0.191 1.286,0.191 L16.714,0.191 C17.423,0.191 18.000,0.744 18.000,1.424 L18.000,11.285 C18.000,11.965 17.423,12.518 16.714,12.518 ZM17.143,1.424 C17.143,1.197 16.950,1.013 16.714,1.013 L1.286,1.013 C1.049,1.013 0.857,1.197 0.857,1.424 L0.857,11.285 C0.857,11.512 1.049,11.696 1.286,11.696 L3.000,11.696 C3.237,11.696 3.428,11.880 3.428,12.107 L3.428,13.597 L5.285,11.817 C5.366,11.740 5.475,11.696 5.588,11.696 L16.714,11.696 C16.950,11.696 17.143,11.512 17.143,11.285 L17.143,1.424 ZM12.343,6.971 C11.988,6.971 11.700,6.695 11.700,6.355 C11.700,6.014 11.988,5.738 12.343,5.738 C12.698,5.738 12.986,6.014 12.986,6.355 C12.986,6.695 12.698,6.971 12.343,6.971 ZM9.000,6.971 C8.645,6.971 8.357,6.695 8.357,6.355 C8.357,6.014 8.645,5.738 9.000,5.738 C9.355,5.738 9.643,6.014 9.643,6.355 C9.643,6.695 9.355,6.971 9.000,6.971 ZM5.414,6.971 C5.059,6.971 4.772,6.695 4.772,6.355 C4.772,6.014 5.059,5.738 5.414,5.738 C5.769,5.738 6.057,6.014 6.057,6.355 C6.057,6.695 5.769,6.971 5.414,6.971 Z" />
    </g>
  </symbol>

  <symbol id="address">
    <g>
      <path
        d="M30.525,43.047 C30.035,43.547 29.303,43.687 28.662,43.402 L22.997,40.892 L16.403,43.809 C16.116,43.937 15.808,44.000 15.500,44.000 C15.191,44.000 14.883,43.937 14.597,43.809 L8.013,40.892 L2.339,43.402 C1.697,43.687 0.965,43.547 0.475,43.047 C-0.015,42.547 -0.138,41.817 0.162,41.185 L5.156,30.669 C5.262,30.446 5.439,30.266 5.661,30.156 C6.205,29.885 6.869,30.104 7.142,30.647 C7.307,30.978 7.290,31.353 7.128,31.656 L2.785,40.800 L7.105,38.886 C7.679,38.631 8.338,38.632 8.911,38.887 L15.494,41.803 C15.494,41.803 15.501,41.803 15.504,41.803 C15.505,41.803 15.505,41.803 15.505,41.803 L22.090,38.886 C22.661,38.631 23.319,38.631 23.894,38.886 L28.214,40.800 L23.872,31.655 C23.653,31.248 23.709,30.731 24.046,30.380 C24.431,29.978 25.047,29.930 25.487,30.244 C25.638,30.352 25.762,30.497 25.844,30.668 L30.838,41.186 C31.137,41.817 31.015,42.546 30.525,43.047 ZM27.897,20.283 L18.349,36.210 C17.745,37.219 16.680,37.821 15.500,37.821 C14.320,37.821 13.254,37.219 12.650,36.210 L3.102,20.283 C3.091,20.263 3.079,20.242 3.069,20.221 C2.056,18.253 1.527,16.037 1.540,13.810 C1.563,10.168 3.004,6.727 5.601,4.121 C8.197,1.515 11.643,0.052 15.302,0.001 C19.069,-0.051 22.621,1.370 25.301,4.002 C27.982,6.633 29.459,10.146 29.459,13.894 C29.459,16.123 28.945,18.251 27.931,20.221 C27.920,20.242 27.908,20.263 27.897,20.283 ZM23.752,5.564 C21.537,3.390 18.613,2.196 15.505,2.196 C15.448,2.196 15.390,2.197 15.333,2.198 C8.982,2.285 3.785,7.501 3.747,13.823 C3.735,15.714 4.163,17.519 5.016,19.189 L14.545,35.085 C14.837,35.572 15.310,35.625 15.500,35.625 C15.690,35.625 16.163,35.572 16.455,35.085 L25.983,19.189 C26.826,17.540 27.253,15.759 27.253,13.894 C27.253,10.739 26.009,7.781 23.752,5.564 ZM15.500,18.921 C12.715,18.921 10.449,16.667 10.449,13.894 C10.449,11.122 12.715,8.868 15.500,8.868 C18.285,8.868 20.551,11.122 20.551,13.894 C20.551,16.667 18.285,18.921 15.500,18.921 ZM15.500,11.064 C13.932,11.064 12.655,12.334 12.655,13.894 C12.655,15.456 13.932,16.726 15.500,16.726 C17.069,16.726 18.344,15.456 18.344,13.894 C18.344,12.334 17.069,11.064 15.500,11.064 Z" />
    </g>
  </symbol>

  <symbol id="mail">
    <g>
      <path
        d="M36.053,34.870 L0.976,34.918 L0.975,34.918 C0.724,34.918 0.484,34.820 0.306,34.646 C0.128,34.472 0.028,34.234 0.028,33.987 L-0.000,13.786 C-0.000,13.780 0.001,13.775 0.001,13.769 C0.005,13.478 0.147,13.194 0.409,13.015 L5.731,9.399 L5.731,5.561 C5.731,5.047 6.155,4.629 6.679,4.629 L12.746,4.629 L17.963,1.083 C18.288,0.862 18.718,0.863 19.042,1.084 L24.227,4.629 L30.320,4.629 C30.843,4.629 31.267,5.047 31.267,5.561 L31.267,9.443 L36.564,13.064 C36.753,13.194 36.880,13.379 36.937,13.583 C36.958,13.629 36.971,13.712 36.971,13.767 L36.999,33.937 C37.000,34.450 36.576,34.869 36.053,34.870 ZM33.226,33.010 L18.514,21.786 L3.748,33.051 L33.226,33.010 ZM5.731,11.662 L2.613,13.782 L5.731,15.903 L5.731,11.662 ZM1.897,15.563 L1.920,32.086 L13.363,23.356 L1.897,15.563 ZM18.500,2.984 L16.079,4.629 L20.907,4.629 L18.500,2.984 ZM29.372,6.493 L7.626,6.493 L7.626,17.190 L14.934,22.158 L17.933,19.870 C18.278,19.607 18.749,19.616 19.081,19.862 C19.086,19.865 19.090,19.867 19.094,19.870 L22.071,22.142 L29.372,17.149 L29.372,6.493 ZM31.267,11.713 L31.267,15.854 L34.295,13.783 L31.267,11.713 ZM35.078,15.517 L23.640,23.338 L35.101,32.082 L35.078,15.517 ZM11.137,15.999 C11.137,15.485 11.561,15.067 12.085,15.067 L24.915,15.067 C25.437,15.067 25.861,15.485 25.861,15.999 C25.861,16.514 25.437,16.932 24.915,16.932 L12.085,16.932 C11.561,16.932 11.137,16.514 11.137,15.999 ZM24.915,12.085 L12.085,12.085 C11.561,12.085 11.137,11.667 11.137,11.153 C11.137,10.639 11.561,10.221 12.085,10.221 L24.915,10.221 C25.437,10.221 25.861,10.639 25.861,11.153 C25.861,11.667 25.437,12.085 24.915,12.085 Z" />
    </g>
  </symbol>

  <symbol id="phone">
    <g>
      <path
        d="M31.941,22.244 C29.151,22.244 26.881,20.004 26.881,17.249 C26.881,14.495 29.151,12.254 31.941,12.254 C34.730,12.254 37.000,14.495 37.000,17.249 C37.000,20.004 34.730,22.244 31.941,22.244 ZM31.941,14.204 C30.240,14.204 28.857,15.570 28.857,17.249 C28.857,18.929 30.240,20.294 31.941,20.294 C33.641,20.294 35.025,18.929 35.025,17.249 C35.025,15.570 33.641,14.204 31.941,14.204 ZM31.941,10.908 C29.151,10.908 26.881,8.667 26.881,5.913 C26.881,3.158 29.151,0.918 31.941,0.918 C34.730,0.918 37.000,3.158 37.000,5.913 C37.000,8.667 34.730,10.908 31.941,10.908 ZM31.941,2.867 C30.240,2.867 28.857,4.234 28.857,5.913 C28.857,7.592 30.240,8.959 31.941,8.959 C33.641,8.959 35.025,7.592 35.025,5.913 C35.025,4.234 33.641,2.867 31.941,2.867 ZM18.499,44.917 C15.710,44.917 13.440,42.676 13.440,39.922 C13.440,37.168 15.710,34.927 18.499,34.927 C21.289,34.927 23.559,37.168 23.559,39.922 C23.559,42.677 21.289,44.917 18.499,44.917 ZM18.499,36.877 C16.799,36.877 15.415,38.243 15.415,39.922 C15.415,41.601 16.799,42.967 18.499,42.967 C20.200,42.967 21.585,41.601 21.585,39.922 C21.585,38.243 20.200,36.877 18.499,36.877 ZM18.499,33.581 C15.710,33.581 13.440,31.340 13.440,28.586 C13.440,25.831 15.710,23.591 18.499,23.591 C21.289,23.591 23.559,25.831 23.559,28.586 C23.559,31.340 21.289,33.581 18.499,33.581 ZM18.499,25.540 C16.799,25.540 15.415,26.907 15.415,28.586 C15.415,30.265 16.799,31.632 18.499,31.632 C20.200,31.632 21.585,30.265 21.585,28.586 C21.585,26.907 20.200,25.540 18.499,25.540 ZM18.499,22.244 C15.710,22.244 13.440,20.004 13.440,17.249 C13.440,14.495 15.710,12.254 18.499,12.254 C21.289,12.254 23.559,14.495 23.559,17.249 C23.559,20.004 21.289,22.244 18.499,22.244 ZM18.499,14.204 C16.799,14.204 15.415,15.570 15.415,17.249 C15.415,18.929 16.799,20.294 18.499,20.294 C20.200,20.294 21.585,18.929 21.585,17.249 C21.585,15.570 20.200,14.204 18.499,14.204 ZM18.499,10.908 C15.710,10.908 13.440,8.667 13.440,5.913 C13.440,3.158 15.710,0.918 18.499,0.918 C21.289,0.918 23.559,3.158 23.559,5.913 C23.559,8.667 21.289,10.908 18.499,10.908 ZM18.499,2.867 C16.799,2.867 15.415,4.234 15.415,5.913 C15.415,7.592 16.799,8.959 18.499,8.959 C20.200,8.959 21.585,7.592 21.585,5.913 C21.585,4.234 20.200,2.867 18.499,2.867 ZM5.059,33.581 C2.269,33.581 -0.000,31.340 -0.000,28.586 C-0.000,25.831 2.269,23.591 5.059,23.591 C7.849,23.591 10.118,25.831 10.118,28.586 C10.118,31.340 7.849,33.581 5.059,33.581 ZM5.059,25.540 C3.358,25.540 1.974,26.907 1.974,28.586 C1.974,30.265 3.358,31.632 5.059,31.632 C6.760,31.632 8.143,30.265 8.143,28.586 C8.143,26.907 6.760,25.540 5.059,25.540 ZM5.059,22.244 C2.269,22.244 -0.000,20.004 -0.000,17.249 C-0.000,14.495 2.269,12.254 5.059,12.254 C7.849,12.254 10.118,14.495 10.118,17.249 C10.118,20.004 7.849,22.244 5.059,22.244 ZM5.059,14.204 C3.358,14.204 1.974,15.570 1.974,17.249 C1.974,18.929 3.358,20.294 5.059,20.294 C6.760,20.294 8.143,18.929 8.143,17.249 C8.143,15.570 6.760,14.204 5.059,14.204 ZM5.059,10.908 C2.269,10.908 -0.000,8.667 -0.000,5.913 C-0.000,3.158 2.269,0.918 5.059,0.918 C7.849,0.918 10.118,3.158 10.118,5.913 C10.118,8.667 7.849,10.908 5.059,10.908 ZM5.059,2.867 C3.358,2.867 1.974,4.234 1.974,5.913 C1.974,7.592 3.358,8.959 5.059,8.959 C6.760,8.959 8.143,7.592 8.143,5.913 C8.143,4.234 6.760,2.867 5.059,2.867 ZM31.941,23.591 C34.730,23.591 37.000,25.831 37.000,28.586 C37.000,31.340 34.730,33.581 31.941,33.581 C29.151,33.581 26.881,31.340 26.881,28.586 C26.881,25.831 29.151,23.591 31.941,23.591 ZM31.941,31.632 C33.641,31.632 35.025,30.265 35.025,28.586 C35.025,26.907 33.641,25.540 31.941,25.540 C30.240,25.540 28.857,26.907 28.857,28.586 C28.857,30.265 30.240,31.632 31.941,31.632 Z" />
    </g>
  </symbol>
</svg>